@startuml

class 주소정보 {
+이름
+전화번호
+주소
}

class 주소정보리스트 {
+주소정보를 추가한다()
+주소정보를 삭제한다()
+주소정보를 수정한다()
+index로 주소정보를 조회한다()
+이름으로 주소정보를 검색한다()
+전화번호로 주소정보를 검색한다()
+주소정보리스트를 정렬한다()
+주소정보리스트를 DB에 저장한다()
+DB에서 주소정보리스트를 불러온다()
+주소정보리스트를 file에 저장한다()
+file에서 주소정보리스트를 불러온다()
}

class 주소정보리스트UI {
+MainMenu를 출력한다()
+menu를 선택한다()
+주소정보를 입력한다()
+주소정보를 삭제한다()
+주소정보를 수정한다()
+전체 주소정보를 조회한다()
+이름으로 검색한다()
+전화번호로 검색한다()
+DB에 저장한다()
+DB에서 불러온다()
+file에 저장한다()
+file에서 불러온다()
}

주소정보 "*" <--- "1" 주소정보리스트
주소정보리스트 <--- 주소정보리스트UI

@enduml
